#N canvas 1911 -9 1920 1026 10;
#X obj 412 11 inlet;
#X obj 136 636 outlet~;
#X obj 137 402 tabread4~ muestra2;
#X obj 137 279 line~;
#X msg 137 228 1 \$1;
#X obj 137 189 f;
#X obj 187 228 del;
#X msg 187 253 0 0;
#X obj 137 520 *~;
#X obj 232 128 r \$0-tamgr;
#X obj 291 488 tabread4~ hanning2;
#X obj 291 465 *~ 256;
#X obj 164 540 r \$0-vol;
#X obj 199 45 r \$0-intervalo;
#X obj 935 243 s \$0-tamgr;
#X obj 137 127 del;
#X obj 136 101 + 1000;
#X obj 94 50 bng 15 250 50 0 empty empty empty 17 7 0 10 -262144 -1
-1;
#X obj 136 70 random 4000;
#X obj 860 40 loadbang;
#X obj 945 88 random 5000;
#X obj 945 110 s \$0-intervalo;
#X obj 137 601 *~;
#X obj 164 561 pack 0 10;
#X obj 164 582 line~;
#X floatatom 768 147 5 0 0 0 - - -;
#X obj 768 90 random 10;
#X obj 768 123 expr ($f1 + 10 )/ 20;
#X obj 768 181 s \$0-vol;
#X obj 232 149 t b f;
#X obj 137 365 +~;
#X obj 412 49 s \$0-muestrasTotales;
#X obj 339 193 r \$0-muestrasTotales;
#X obj 286 233 random;
#X obj 286 254 sig~;
#X text 339 144 quizá debería restar el tam grano \; hay qué ver
qué pasa con el tabread al llegar al último índice y sobrepasarlo
;
#X obj 137 328 *~;
#X obj 745 40 bng 15 250 50 0 empty empty empty 17 7 0 10 -262144 -1
-1;
#X obj 935 191 + 5;
#X obj 935 217 * 44.1;
#X obj 935 170 random 55;
#X connect 0 0 31 0;
#X connect 2 0 8 0;
#X connect 3 0 11 0;
#X connect 3 0 36 0;
#X connect 4 0 3 0;
#X connect 5 0 4 0;
#X connect 5 0 6 0;
#X connect 6 0 7 0;
#X connect 7 0 3 0;
#X connect 8 0 22 0;
#X connect 9 0 29 0;
#X connect 10 0 8 1;
#X connect 11 0 10 0;
#X connect 12 0 23 0;
#X connect 13 0 18 1;
#X connect 15 0 5 0;
#X connect 15 0 17 0;
#X connect 15 0 33 0;
#X connect 16 0 15 0;
#X connect 17 0 18 0;
#X connect 18 0 16 0;
#X connect 19 0 20 0;
#X connect 19 0 26 0;
#X connect 19 0 40 0;
#X connect 20 0 21 0;
#X connect 22 0 1 0;
#X connect 23 0 24 0;
#X connect 24 0 22 1;
#X connect 25 0 28 0;
#X connect 26 0 27 0;
#X connect 27 0 25 0;
#X connect 29 0 18 0;
#X connect 29 1 5 1;
#X connect 29 1 36 1;
#X connect 30 0 2 0;
#X connect 32 0 33 1;
#X connect 33 0 34 0;
#X connect 34 0 30 1;
#X connect 36 0 30 0;
#X connect 37 0 26 0;
#X connect 38 0 39 0;
#X connect 39 0 14 0;
#X connect 40 0 38 0;
