#N canvas -9 -9 1920 1026 10;
#N canvas -8 0 958 1016 interfaz 0;
#X obj 90 109 cnv 15 653 450 empty empty empty 20 12 0 14 -116509 -66577
0;
#N canvas 422 93 1324 875 sg1 0;
#X obj 1720 10 cnv 15 287 391 empty empty empty 20 12 0 14 -233017
-66577 0;
#X obj 193 -48 cnv 15 227 420 empty empty empty 20 12 0 14 -233017
-66577 0;
#X obj 200 166 cnv 5 214 176 empty empty empty 20 12 0 14 -253619 -66577
0;
#X obj 201 -26 cnv 15 213 185 empty empty empty 20 12 0 14 -1 -66577
0;
#X obj 207 -16 cnv 7 199 138 empty empty empty 20 12 0 14 -241014 -66577
0;
#X obj 1201 -452 bng 15 250 50 0 empty sg1_cargar empty 17 7 0 10 -262144
-1 -1;
#X obj 1201 -431 openpanel;
#X msg 1201 -410 read -resize \$1 muestra;
#N canvas 0 50 450 250 (subpatch) 0;
#X array muestra 8.31366e+006 float 2;
#X coords 0 1 8.31366e+006 -1 200 140 1;
#X restore 207 -16 graph;
#X obj 1201 -389 soundfiler;
#X floatatom 1216 -362 15 0 0 0 - - -;
#X obj 1273 -287 expr 44100 / $f1;
#X obj 1273 -267 phasor~;
#X obj 1273 -246 *~;
#X obj 897 18 tabread4~ muestra;
#X obj 1104 251 *~;
#X obj 830 215 pack 0 10;
#X obj 902 -150 samphold~;
#X obj 758 -87 +~;
#X obj 983 286 env~;
#X obj 830 236 line~;
#X floatatom 833 -277 10 0 0 0 - - -;
#X obj 209 133 hsl 196 15 0 1 0 0 empty posicionlect empty -2 -8 0
10 -133153 -240385 -1 8789 1;
#N canvas 846 241 453 353 loc 0;
#X obj 94 100 snapshot~;
#X obj 129 71 metro 20;
#X obj 129 46 tgl 15 0 empty empty empty 17 7 0 10 -262144 -1 -1 1
1;
#X obj 217 11 r lb;
#X msg 217 32 1;
#X obj 60 62 inlet~;
#X obj 94 122 s posicionlect;
#X obj 280 140 inlet;
#X connect 0 0 6 0;
#X connect 1 0 0 0;
#X connect 2 0 1 0;
#X connect 3 0 4 0;
#X connect 4 0 2 0;
#X connect 5 0 0 0;
#X restore 1255 -39 pd loc;
#X obj 1759 175 bng 15 250 50 0 empty empty empty 17 7 0 10 -262144
-1 -1;
#X obj 1790 195 samplerate~;
#X obj 1790 216 /~ 256;
#X obj 1790 267 osc~;
#X msg 1880 235 0;
#X obj 1790 288 *~ -0.5;
#X obj 1790 309 +~ 0.5;
#X obj 1790 330 tabwrite~ hanning;
#X obj 897 119 *~;
#X obj 933 63 *~ 256;
#X obj 932 90 tabread4~ hanning;
#X obj 1790 355 table hanning 256;
#X obj 1760 50 loadbang;
#X obj 1760 75 s lb;
#X obj 772 -384 * 44.1;
#X floatatom 772 -421 5 0 0 0 - sg1_tam -;
#X obj 833 -210 sig~;
#X obj 757 -131 *~;
#X obj 470 -400 tgl 15 0 empty empty empty 17 7 0 10 -262144 -1 -1
0 1;
#X obj 469 -176 random 104617;
#X obj 469 -151 sig~;
#X obj 1759 155 r lb;
#X obj 204 -42 bng 12 250 50 0 sg1_cargar empty CARGAR 17 6 0 10 -262144
-1 -1;
#N canvas 880 200 454 329 switch 0;
#X obj 41 96 inlet~;
#X obj 140 96 inlet~;
#X obj 40 260 outlet~;
#X obj 41 170 *~;
#X obj 140 170 *~;
#X obj 230 40 r sg1_randomSW;
#X obj 270 66 sel 0;
#X obj 61 140 line 0 20;
#X msg 270 91 1;
#X obj 160 140 line 0 20;
#X msg 300 110 0;
#X connect 0 0 3 0;
#X connect 1 0 4 0;
#X connect 3 0 2 0;
#X connect 4 0 2 0;
#X connect 5 0 6 0;
#X connect 5 0 7 0;
#X connect 6 0 8 0;
#X connect 6 1 10 0;
#X connect 7 0 3 1;
#X connect 8 0 9 0;
#X connect 9 0 4 1;
#X connect 10 0 9 0;
#X restore 850 -101 pd switch;
#X obj 206 187 cnv 5 201 148 empty empty empty 20 12 0 14 -133153 -66577
0;
#X obj 370 223 vsl 11 70 0 4 0 0 empty sg1_pr_vol VOL -4 81 0 10 -99865
-260097 -252289 4633 1;
#X obj 470 -370 metro 100;
#X obj 1090 320 outlet~;
#X obj 1160 320 outlet~;
#X obj 1334 -348 s arch_muestras;
#X obj 469 -82 /~;
#X obj 521 -115 r arch_muestras;
#N canvas 880 200 454 329 switch 0;
#X obj 41 96 inlet~;
#X obj 140 96 inlet~;
#X obj 40 260 outlet~;
#X obj 41 170 *~;
#X obj 140 170 *~;
#X obj 230 40 r sg1_randomSW;
#X obj 270 66 sel 0;
#X obj 61 140 line 0 20;
#X msg 270 91 1;
#X obj 160 140 line 0 20;
#X msg 300 110 0;
#X connect 0 0 3 0;
#X connect 1 0 4 0;
#X connect 3 0 2 0;
#X connect 4 0 2 0;
#X connect 5 0 6 0;
#X connect 5 0 7 0;
#X connect 6 0 8 0;
#X connect 6 1 10 0;
#X connect 7 0 3 1;
#X connect 8 0 9 0;
#X connect 9 0 4 1;
#X connect 10 0 9 0;
#X restore 1255 -69 pd switch;
#X text 1321 -72 pos indicador;
#X obj 496 -512 r sg1_metro;
#X obj 390 223 vu 10 80 sg1_vu empty -1 -8 0 10 -66577 -1 0 0;
#X obj 494 -491 t b f;
#X obj 218 -185 del 10;
#X msg 258 -165 0;
#X msg 218 -145 1;
#X obj 1869 51 r arch_muestras;
#X obj 1869 96 f;
#X text 1386 -284 Lector principal;
#X obj 193 354 cnv 4 150 3 sg1_repSW empty empty 20 12 0 14 -261678
-66577 0;
#X obj 340 348 hsl 54 15 0 1 0 0 sg1_limpio sg1_pr_limpio LIMPIO 19
6 0 10 -74899 -131105 -262144 0 1;
#X obj 983 311 - 100;
#X obj 16 99 r lb;
#X msg 16 124 0;
#X obj 470 -440 r sg1_metro_io;
#X msg -3 181 1;
#X obj 983 336 s sg1_vu;
#X obj 1302 177 tabread4~ muestra;
#X obj 1303 214 *~;
#X obj 1452 158 r sg1_limpio;
#X obj 1452 179 pack 0 10;
#X obj 1452 200 line~;
#X obj 218 292 hsl 70 10 -1 1 0 0 sg1_velrep empty VEL.REPROD -2 5
0 9 -33289 -262144 -260097 2300 1;
#X obj 862 -471 r sg1_velrep;
#X obj 833 -301 *;
#X obj 862 -378 t b f;
#X obj 833 -324 f;
#X obj 913 -446 r sg1_vrep_multi;
#X obj 862 -403 *;
#X obj 381 170 hradio 12 1 0 2 \$0-motor \$0-pr_motor off -32 6 1 10
-86853 -260097 -1 0;
#X obj 206 200 cnv 2 130 3 sg1_repSW empty empty 20 11 0 14 -262144
-66577 0;
#X obj 224 195 bng 14 250 50 0 \$0-sg1_reproduccion empty reproducción
18 0 1 10 -261682 -260097 -159808;
#X obj 328 194 cnv 5 73 16 empty sg1-random LINEAL 7 8 1 13 -49868
-262144 0;
#N canvas 1117 187 676 581 lector-m1 0;
#X obj 184 91 inlet;
#X obj 274 127 inlet;
#X text 273 106 tamgr (ms);
#X obj 184 289 line~;
#X msg 184 238 1 \$1;
#X obj 184 173 bng 15 250 50 0 empty empty empty 17 7 0 10 -262144
-1 -1;
#X obj 184 203 f;
#X obj 234 238 del;
#X msg 234 263 0 0;
#X obj 107 133 r gr_play;
#X text 183 70 metro;
#X obj 184 332 outlet~;
#X connect 0 0 5 0;
#X connect 1 0 6 1;
#X connect 3 0 11 0;
#X connect 4 0 3 0;
#X connect 5 0 6 0;
#X connect 6 0 4 0;
#X connect 6 0 7 0;
#X connect 7 0 8 0;
#X connect 8 0 3 0;
#X connect 9 0 5 0;
#X restore 624 -306 pd lector-m1;
#X text 770 -440 tamGr;
#N canvas 880 200 635 583 switch-m 0;
#X obj 92 179 inlet~;
#X obj 191 179 inlet~;
#X obj 91 343 outlet~;
#X obj 92 253 *~;
#X obj 191 253 *~;
#X obj 321 149 sel 0;
#X obj 112 223 line 0 20;
#X msg 321 174 1;
#X obj 211 223 line 0 20;
#X msg 351 193 0;
#X obj 258 19 r \$0-motor;
#X obj 258 120 spigot;
#X obj 348 0 r \$0_sg1_ctlin;
#X obj 348 21 sel 1;
#X msg 348 83 0;
#X msg 405 83 1;
#X obj 285 68 f;
#X obj 378 42 t b b;
#X obj 291 97 tgl 15 0 empty empty empty 17 7 0 10 -262144 -1 -1 0
1;
#X obj 393 260 s \$0-motor_gui_filt;
#X connect 0 0 3 0;
#X connect 1 0 4 0;
#X connect 3 0 2 0;
#X connect 4 0 2 0;
#X connect 5 0 7 0;
#X connect 5 1 9 0;
#X connect 6 0 3 1;
#X connect 7 0 6 0;
#X connect 8 0 4 1;
#X connect 9 0 6 0;
#X connect 10 0 11 0;
#X connect 10 0 16 1;
#X connect 11 0 5 0;
#X connect 11 0 8 0;
#X connect 11 0 19 0;
#X connect 12 0 13 0;
#X connect 13 0 14 0;
#X connect 13 1 17 0;
#X connect 14 0 8 0;
#X connect 14 0 5 0;
#X connect 14 0 18 0;
#X connect 14 0 19 0;
#X connect 15 0 18 0;
#X connect 16 0 11 0;
#X connect 17 0 16 0;
#X connect 17 1 15 0;
#X connect 18 0 11 1;
#X restore 625 -190 pd switch-m;
#X text 623 -504 SEÑALES DE CONTROL;
#X text 856 -493 VELOCIDAD REP;
#X text 902 -279 en samples;
#X text 1326 150 SEÑAL LIMPIA;
#N canvas -30 358 1920 1026 lector-m2 0;
#X obj 247 265 phasor~;
#X obj 247 107 inlet;
#X obj 247 157 expr 1000 / $f1;
#X obj 247 286 outlet~;
#X connect 0 0 3 0;
#X connect 1 0 2 0;
#X connect 2 0 0 0;
#X restore 717 -254 pd lector-m2;
#X obj 208 172 cnv 5 1 1 empty \$0-sg1_motor_label GRANO.Simple/Sinc
4 5 0 12 -253619 -66577 0;
#N canvas 326 111 1396 302 cambios-estado-GUI 0;
#X obj 83 52 sel 1;
#X msg 110 176 label play.gr;
#X obj 83 213 s \$0-pr_gr_play;
#X msg 83 133 label (deshab.);
#X msg 219 132 label PHASOR.Continuo;
#X msg 247 175 label GRANO.Simple/Sinc;
#X obj 219 214 s \$0-sg1_motor_label;
#X obj 452 213 s sg1-random;
#X obj 452 71 tgl 15 0 empty empty empty 17 7 0 10 -262144 -1 -1 0
1;
#X obj 452 129 sel 1;
#X msg 452 164 label RANDOM;
#X msg 478 190 label LINEAL;
#X obj 501 97 s sg1_randomSW;
#X obj 452 35 r \$0-sg1_reproduccion;
#X msg 644 130 1;
#X msg 684 130 10;
#X obj 644 216 s sg1_vrep_multi;
#X msg 770 130 40;
#X msg 728 130 20;
#X obj 644 94 sel 0 1 2 3;
#X obj 644 36 r \$0-sg1_factor;
#X obj 824 216 s \$0-sg1_factor_GUI;
#X obj 955 216 s \$0_sg1_ctlin_gui;
#X msg 982 129 color 13;
#X msg 955 174 color 16;
#X obj 955 52 r \$0_sg1_ctlin;
#X obj 955 73 sel 1;
#X obj 1090 215 s \$0-pr_motor;
#X msg 1109 149 label motor;
#X msg 1087 121 label off;
#X obj 83 31 r \$0-motor_gui_filt;
#X connect 0 0 3 0;
#X connect 0 0 4 0;
#X connect 0 1 1 0;
#X connect 0 1 5 0;
#X connect 1 0 2 0;
#X connect 3 0 2 0;
#X connect 4 0 6 0;
#X connect 5 0 6 0;
#X connect 8 0 9 0;
#X connect 8 0 12 0;
#X connect 9 0 10 0;
#X connect 9 1 11 0;
#X connect 10 0 7 0;
#X connect 11 0 7 0;
#X connect 13 0 8 0;
#X connect 14 0 16 0;
#X connect 14 0 21 0;
#X connect 15 0 16 0;
#X connect 15 0 21 0;
#X connect 17 0 16 0;
#X connect 17 0 21 0;
#X connect 18 0 16 0;
#X connect 18 0 21 0;
#X connect 19 0 14 0;
#X connect 19 1 15 0;
#X connect 19 2 18 0;
#X connect 19 3 17 0;
#X connect 20 0 19 0;
#X connect 23 0 22 0;
#X connect 24 0 22 0;
#X connect 25 0 26 0;
#X connect 26 0 24 0;
#X connect 26 0 29 0;
#X connect 26 1 23 0;
#X connect 26 1 28 0;
#X connect 28 0 27 0;
#X connect 29 0 27 0;
#X connect 30 0 0 0;
#X restore 16 414 pd cambios-estado-GUI;
#X obj 206 214 cnv 7 150 64 empty empty empty 20 12 0 14 -228856 -66577
0;
#X obj 283 226 nbx 5 14 -1e+037 1e+037 0 0 sg1_tam sg1_pr_tam dur.grano(ms)
0 -6 0 8 -41611 -262144 -1 34 256;
#X obj 222 263 cnv 2 100 2 empty empty empty 20 12 0 14 -260097 -66577
0;
#X obj 217 256 tgl 15 0 sg1_metro_io sg1_pr_metro_io sinc 25 0 0 10
-12484 -262144 -1 0 1;
#X obj 282 257 nbx 5 14 -1e+037 1e+037 0 0 sg1_metro sg1_pr_metro iteración
0 -8 0 8 -45772 -262144 -1 46 256;
#X obj 217 225 bng 15 250 50 0 gr_play \$0-pr_gr_play play.gr 19 7
0 8 -41611 -260097 -260097;
#X obj 215 309 hradio 10 1 0 4 \$0-sg1_factor empty factor: 43 5 0
8 -228856 -159808 -262144 3;
#X obj 954 -362 s \$0-sg1_vRep;
#X obj 318 314 cnv 2 40 2 empty empty empty 20 12 0 14 -260097 -66577
0;
#X obj 356 295 cnv 1 2 20 empty empty empty 20 12 0 14 -260097 -66577
0;
#X obj 318 295 cnv 2 40 2 empty empty empty 20 12 0 14 -260097 -66577
0;
#X obj 300 310 nbx 2 10 -1e+037 1e+037 0 0 empty \$0-sg1_factor_GUI
empty 0 0 0 9 -261682 -159808 -1 40 256;
#X obj 300 292 nbx 5 10 -1e+037 1e+037 0 0 empty \$0-sg1_vRep empty
0 0 0 9 -232576 -260097 -1 -13.3333 256;
#X obj 790 -357 t b f;
#X obj 833 -257 pack 0 10;
#X obj 833 -233 line;
#X obj 57 -448 inlet;
#X text 56 -471 recibe intensidad de grano;
#X obj 79 24 r esclavo_play;
#X obj 79 61 * 4;
#X obj 79 82 t b f;
#X obj 79 103 del 20;
#X obj 57 -348 spigot;
#X obj 90 -372 tgl 15 0 empty empty empty 17 7 0 10 -262144 -1 -1 1
1;
#X obj 402 -42 tgl 10 0 \$0_sg1_ctlin \$0_sg1_ctlin-pr ctl-in -40 5
0 10 -99865 -262144 -1 1 1;
#X obj 355 -39 cnv 5 5 5 empty \$0_sg1_ctlin_gui empty 20 12 0 14 -24198
-66577 0;
#X obj 127 -434 r \$0_sg1_ctlin;
#X obj 57 -327 s esclavo_play;
#X msg 127 -413 \; sg1_pr_metro_io 0;
#X obj 370 -125 r lb;
#X msg 370 -104 0;
#X msg 16 310 \; sg1_pr_metro 500 \; sg1_pr_tam 20 \; sg1_pr_vol 0.7
\; sg1_pr_rep_SW 0 \; sg1_pr_limpio 0 \;;
#X connect 5 0 6 0;
#X connect 6 0 7 0;
#X connect 7 0 9 0;
#X connect 9 0 10 0;
#X connect 10 0 11 0;
#X connect 10 0 13 1;
#X connect 10 0 43 1;
#X connect 10 0 53 0;
#X connect 11 0 12 0;
#X connect 12 0 13 0;
#X connect 12 0 56 1;
#X connect 13 0 17 0;
#X connect 13 0 75 0;
#X connect 14 0 32 0;
#X connect 15 0 19 0;
#X connect 15 0 51 0;
#X connect 15 0 52 0;
#X connect 16 0 20 0;
#X connect 17 0 47 1;
#X connect 18 0 14 0;
#X connect 19 0 69 0;
#X connect 20 0 15 1;
#X connect 21 0 115 0;
#X connect 24 0 25 0;
#X connect 24 0 28 0;
#X connect 24 0 31 0;
#X connect 25 0 26 0;
#X connect 26 0 27 0;
#X connect 27 0 29 0;
#X connect 28 0 27 1;
#X connect 29 0 30 0;
#X connect 30 0 31 0;
#X connect 32 0 15 0;
#X connect 33 0 34 0;
#X connect 34 0 32 1;
#X connect 36 0 37 0;
#X connect 38 0 114 0;
#X connect 39 0 38 0;
#X connect 39 0 91 1;
#X connect 39 0 98 0;
#X connect 40 0 41 1;
#X connect 41 0 18 0;
#X connect 42 0 50 0;
#X connect 43 0 44 0;
#X connect 44 0 47 0;
#X connect 44 0 54 0;
#X connect 45 0 24 0;
#X connect 47 0 18 1;
#X connect 49 0 16 0;
#X connect 50 0 43 0;
#X connect 50 0 91 0;
#X connect 54 0 56 0;
#X connect 55 0 54 1;
#X connect 56 0 23 0;
#X connect 58 0 60 0;
#X connect 60 0 61 0;
#X connect 60 0 62 0;
#X connect 60 1 50 1;
#X connect 61 0 63 0;
#X connect 62 0 104 0;
#X connect 63 0 104 0;
#X connect 64 0 65 1;
#X connect 69 0 74 0;
#X connect 70 0 71 0;
#X connect 70 0 73 0;
#X connect 70 0 132 0;
#X connect 71 0 104 0;
#X connect 71 0 107 0;
#X connect 71 0 87 0;
#X connect 72 0 42 0;
#X connect 73 0 80 0;
#X connect 73 0 89 0;
#X connect 75 0 76 0;
#X connect 76 0 15 0;
#X connect 77 0 78 0;
#X connect 78 0 79 0;
#X connect 79 0 76 1;
#X connect 81 0 86 0;
#X connect 82 0 21 0;
#X connect 83 0 84 0;
#X connect 83 1 82 1;
#X connect 84 0 82 0;
#X connect 85 0 86 1;
#X connect 86 0 83 0;
#X connect 86 0 108 0;
#X connect 91 0 93 0;
#X connect 93 0 41 0;
#X connect 93 0 17 1;
#X connect 93 0 33 0;
#X connect 98 0 93 1;
#X connect 114 0 84 0;
#X connect 114 1 84 1;
#X connect 115 0 116 0;
#X connect 116 0 40 0;
#X connect 117 0 123 0;
#X connect 119 0 120 0;
#X connect 120 0 121 0;
#X connect 121 0 122 0;
#X connect 121 1 49 0;
#X connect 122 0 106 0;
#X connect 123 0 128 0;
#X connect 124 0 123 1;
#X connect 127 0 124 0;
#X connect 127 0 129 0;
#X connect 130 0 131 0;
#X connect 131 0 125 0;
#X coords 0 -1 1 1 228 420 1 193 -48;
#X restore 102 121 pd sg1;
#N canvas -9 -9 1920 1026 escribir_archivo 0;
#X obj 371 77 cnv 5 167 87 empty empty empty 20 12 0 14 -233017 -66577
0;
#X obj 230 134 t b s;
#X msg 180 170 open;
#X obj 180 230 pack s s s;
#X msg 180 255 set \$1 \$2\$3;
#X msg 180 280 open granos_t_65.wav;
#X msg 270 170 .wav;
#X obj 20 160 inlet~;
#X obj 70 160 inlet~;
#X obj 20 320 writesf~ 2;
#X obj 377 82 cnv 5 157 78 empty empty GRABADOR 12 13 0 13 -204786
-159808 0;
#X msg 420 225 stop;
#X symbolatom 390 112 20 0 0 0 - - -;
#X obj 210 -5 loadbang;
#X msg 210 25 nombre_de_archivo;
#X obj 370 205 bng 15 250 50 0 empty empty empty 17 7 0 10 -262144
-1 -1;
#X obj 420 205 bng 15 250 50 0 empty empty empty 17 7 0 10 -262144
-1 -1;
#X obj 430 137 tgl 13 0 empty empty grabar -40 5 0 10 -133153 -262144
-260097 0 1;
#X obj 540 210 sel 1;
#X msg 100 60 0;
#X obj 453 144 cnv 1 8 8 empty grab_grabando ------- 13 -2 0 12 -1
-7 0;
#N canvas -9 -9 1920 1026 col 0;
#X obj 80 156 s grab_grabando;
#X msg 80 90 color -1 13;
#X obj 80 35 inlet;
#X obj 170 34 inlet;
#X obj 170 59 bng 15 250 50 0 empty empty empty 17 7 0 10 -262144 -1
-1;
#X obj 80 60 bng 15 250 50 0 empty empty empty 17 7 0 10 -262144 -1
-1;
#X msg 170 90 color -1 -25;
#X msg 93 118 label GRABANDO;
#X msg 197 120 label -------;
#X connect 1 0 0 0;
#X connect 2 0 5 0;
#X connect 3 0 4 0;
#X connect 4 0 6 0;
#X connect 5 0 1 0;
#X connect 5 0 7 0;
#X connect 6 0 0 0;
#X connect 6 0 8 0;
#X connect 7 0 0 0;
#X connect 8 0 0 0;
#X restore 540 250 pd col;
#X obj -20 210 env~;
#X obj -20 240 expr ($f1 + $f2) / 2;
#X obj -20 265 s grab_vu;
#X obj 471 88 hsl 48 14 0 100 0 0 empty grab_vu IN 36 5 0 10 -199729
-260097 -262144 0 1;
#X obj 370 228 t b b;
#X obj 370 253 del 20;
#X msg 370 278 start;
#X obj 270 191 symbol;
#X obj 210 50 symbol;
#X msg 474 9 label -----;
#X obj 474 29 s grab_grabando;
#X connect 1 0 6 0;
#X connect 1 0 2 0;
#X connect 1 1 3 1;
#X connect 2 0 3 0;
#X connect 3 0 4 0;
#X connect 4 0 5 0;
#X connect 5 0 9 0;
#X connect 6 0 29 0;
#X connect 7 0 9 0;
#X connect 7 0 22 0;
#X connect 8 0 9 1;
#X connect 8 0 22 0;
#X connect 11 0 9 0;
#X connect 12 0 1 0;
#X connect 13 0 14 0;
#X connect 13 0 19 0;
#X connect 13 0 31 0;
#X connect 14 0 30 0;
#X connect 15 0 26 0;
#X connect 16 0 11 0;
#X connect 17 0 18 0;
#X connect 18 0 15 0;
#X connect 18 0 21 0;
#X connect 18 1 16 0;
#X connect 18 1 21 1;
#X connect 19 0 17 0;
#X connect 22 0 23 0;
#X connect 23 0 24 0;
#X connect 26 0 27 0;
#X connect 26 1 5 0;
#X connect 27 0 28 0;
#X connect 28 0 9 0;
#X connect 29 0 3 2;
#X connect 30 0 12 0;
#X connect 31 0 32 0;
#X coords 0 -1 1 1 169 89 1 371 76;
#X restore 560 419 pd escribir_archivo 1;
#X obj 188 602 dac~;
#X obj 524 357 cnv 15 1 1 empty empty GRANULADOR 20 12 0 30 -108187
-65569 0;
#X obj 525 359 cnv 15 1 1 empty empty GRANULADOR 20 12 0 30 -120670
-260097 0;
#X obj 331 468 cnv 5 200 5 empty empty OUT 4 -8 0 14 -65569 -261682
0;
#X obj 530 398 cnv 5 5 75 empty empty empty 20 12 0 14 -65569 -66577
0;
#X obj 642 399 cnv 5 5 20 empty empty empty 20 12 0 14 -65569 -66577
0;
#X obj 530 398 cnv 5 117 5 empty empty empty 20 12 0 14 -65569 -66577
0;
#N canvas -9 -9 1920 1026 graficar 0;
#X obj 100 21 cnv 10 360 180 empty empty empty 20 12 0 14 -233017 -66577
0;
#X obj 106 34 cnv 5 300 140 empty empty empty 20 12 0 14 -245184 -66577
0;
#X obj 773 260 cnv 15 100 60 empty empty empty 20 12 0 14 -233017 -66577
0;
#X obj 775 385 cnv 15 100 60 empty empty empty 20 12 0 14 -233017 -66577
0;
#X obj 709 470 cnv 15 100 60 empty empty empty 20 12 0 14 -233017 -66577
0;
#X obj 840 481 cnv 15 100 60 empty empty empty 20 12 0 14 -233017 -66577
0;
#N canvas 1447 266 450 300 reset 0;
#X obj 168 255 tabwrite graf;
#X obj 168 157 f;
#X floatatom 168 188 5 0 0 0 - - -;
#X obj 196 157 + 1;
#X obj 147 89 tgl 15 0 empty empty empty 17 7 0 10 -262144 -1 -1 0
1;
#X obj 147 52 sel 0;
#X msg 79 140 0;
#X obj 168 208 t b f;
#X obj 168 232 f;
#X obj 79 115 r lb;
#X obj 147 113 metro 10;
#X obj 313 41 inlet;
#X obj 313 62 t b f b;
#X text 311 21 recibe porción a resetear;
#X obj 224 157 % 150;
#X connect 1 0 2 0;
#X connect 1 0 3 0;
#X connect 2 0 7 0;
#X connect 3 0 14 0;
#X connect 4 0 10 0;
#X connect 5 0 4 0;
#X connect 6 0 1 1;
#X connect 6 0 2 0;
#X connect 6 0 8 1;
#X connect 7 0 8 0;
#X connect 7 1 0 1;
#X connect 8 0 0 0;
#X connect 9 0 6 0;
#X connect 10 0 1 0;
#X connect 11 0 12 0;
#X connect 12 0 4 0;
#X connect 12 1 14 1;
#X connect 12 2 6 0;
#X connect 14 0 5 0;
#X connect 14 0 1 1;
#X restore 419 304 pd reset;
#X floatatom 444 235 5 0 0 0 - - -;
#X obj 419 278 int;
#X obj 415 48 bng 15 250 50 0 empty empty play 0 -10 0 10 -99865 -260097
-262144;
#X obj 111 181 hsl 295 15 0 1 0 0 empty graf_gui_pos empty -2 -8 0
10 -128992 -260097 -1 29204 1;
#X obj 535 358 spigot;
#X msg 568 312 0, f 2;
#X obj 568 331 tgl 15 0 empty empty empty 17 7 0 10 -262144 -1 -1 0
1;
#X msg 606 293 1, f 2;
#X obj 530 247 sel 0;
#X obj 557 275 t f b;
#X floatatom 414 85 5 0 0 2 dur(ms) - -;
#N canvas 726 260 514 445 leer 0;
#X obj 168 157 f;
#X floatatom 168 188 5 0 0 0 - - -;
#X obj 196 157 + 1;
#X obj 147 89 tgl 15 0 empty empty empty 17 7 0 10 -262144 -1 -1 0
1;
#X obj 147 52 sel 0;
#X msg 79 140 0;
#X obj 168 208 t b f;
#X obj 168 232 f;
#X obj 79 115 r lb;
#X obj 276 31 inlet;
#X obj 147 113 metro 100;
#X obj 168 286 outlet;
#X obj 168 256 expr (graf[$f1]);
#X obj 276 52 t b b f b;
#X text 274 11 recibe tiempo en ms;
#X obj 309 222 s graf_gui_pos;
#X msg 251 131 150;
#X obj 310 82 / 150;
#X obj 224 157 % 150;
#X obj 309 201 / 150;
#X connect 0 0 1 0;
#X connect 0 0 2 0;
#X connect 1 0 6 0;
#X connect 1 0 19 0;
#X connect 2 0 18 0;
#X connect 3 0 10 0;
#X connect 4 0 3 0;
#X connect 5 0 0 1;
#X connect 5 0 1 0;
#X connect 5 0 7 1;
#X connect 6 0 7 0;
#X connect 6 1 7 1;
#X connect 7 0 12 0;
#X connect 8 0 5 0;
#X connect 9 0 13 0;
#X connect 10 0 0 0;
#X connect 12 0 11 0;
#X connect 13 0 3 0;
#X connect 13 1 16 0;
#X connect 13 2 17 0;
#X connect 13 3 5 0;
#X connect 16 0 18 1;
#X connect 17 0 10 1;
#X connect 18 0 4 0;
#X connect 18 0 0 1;
#X connect 19 0 15 0;
#X restore 530 205 pd leer;
#X obj 530 116 f;
#X obj 419 253 f;
#X obj 419 174 bng 15 250 50 0 empty empty reset 0 -10 0 10 -99865
-159808 -260097;
#X obj 647 37 r lb;
#X msg 648 71 1000;
#N canvas 571 165 450 250 (subpatch) 0;
#X array graf 150 float 3;
#A 0 0 0 0 0 0 0 0 0 0 0.4 0.178571 0 0 0.857143 0 0 0 0 0 0 0 0 0
0 0 0 0 0.257143 0 0 0 0.335714 0 0.657143 0 0 0 0 0 0 0 0 0 0 0 0.321429
0 0 0 0.092858 0 0 0 0 0 0 0.685714 0 0 0 0.471429 0.785714 0.785714
0.785714 0 0 0.228571 0 0 0.621429 0 0 0 0 0 0 0 0.914286 0 0 0 0 0
0.15 0 0.392857 0.7 0 0 0 0 0 0 0 0 0 0 0 0.635714 0 0 0 0 0 0 0 0.15
0 0 0 0 0 0 0 0 0 0.642857 0.142857 0.142857 0 0 0 0 0 0 0 0.521429
0.871429 0 0 0 0 0 0 0 0 0 0 0 0.7 0 0 0 0 0.671429 0 0 0 0 0;
#X coords 0 1 150 0 300 140 1 0 0;
#X restore 107 34 graph;
#X obj 535 412 outlet esclavo_play;
#X msg 656 92 150;
#X connect 7 0 20 0;
#X connect 8 0 6 0;
#X connect 9 0 19 0;
#X connect 11 0 25 0;
#X connect 12 0 13 0;
#X connect 13 0 11 1;
#X connect 14 0 13 0;
#X connect 15 0 12 0;
#X connect 15 1 16 0;
#X connect 16 0 11 0;
#X connect 16 1 14 0;
#X connect 17 0 19 1;
#X connect 18 0 15 0;
#X connect 19 0 18 0;
#X connect 20 0 8 0;
#X connect 21 0 20 0;
#X connect 22 0 23 0;
#X connect 22 0 26 0;
#X connect 23 0 17 0;
#X connect 26 0 7 0;
#X coords 0 -1 1 1 360 180 1 100 20;
#X restore 361 146 pd graficar;
#X obj 570 126 cnv 5 5 20 empty empty OUT 12 10 0 14 -65569 -261682
0;
#X obj 331 126 cnv 5 240 5 empty empty empty 20 12 0 14 -65569 -66577
0;
#X connect 1 0 2 0;
#X connect 1 0 3 0;
#X connect 1 1 2 1;
#X connect 1 1 3 1;
#X connect 10 0 1 0;
#X coords 0 -1 1 1 653 450 1 90 109;
#X restore 270 160 pd interfaz;
#X text 563 70 Para ingresar cualquier dato (número \, texto \, etc.)
es necesario pulsar la casilla deseada \, teclear y luego apretar la
tecla enter (de otra forma el dato no se almacena);
#X text 563 20 Nota: antes de poder reproducir audio se debe seleccionar
el dispositivo (pestaña "medios") y luego encender el DSP (pestaña
"medios");
#X obj 940 161 cnv 15 378 250 empty empty empty 20 12 0 14 -233017
-66577 0;
#X obj 943 164 cnv 15 371 243 empty empty INSTRUCCIONES 17 12 0 14
-262144 -260097 0;
#X text 562 122 Se puede hacer zoom sobre la interfaz gráfica pulsando
a la vez "CTRL" y "+".;
#X obj 942 417 cnv 15 378 250 empty empty empty 20 12 0 14 -233017
-66577 0;
#X obj 945 420 cnv 15 371 243 empty empty Motores_de_lectura 17 12
0 14 -262144 -260097 0;
#X text 955 228 2º elegir el motor de reproducción a utilizar (GRANO.sinc
/ PHASOR continuo \; más detalles abajo), f 57;
#X text 955 194 1º pulsar el botón CARGAR ARCH para cargar una muestra
de audio desde un archivo;
#X text 954 323 4º seleccionar la duración del grano (milisegundos)
, f 57;
#X text 962 445 --> GRANO permite disparar granos indiviudalmente con
el botón "play.gr" \, o bien dispararlos a intervalos regulares de
manera constante con el interruptor sinc. Los intervalos se definen
con el número "iteración" (milisegundos). \; Tener en cuenta que
el tamaño de grano no puede sobrepasar el intervalo de tiempo entre
granos. Considerar que siempre que la duración del grano sea menor
a dicho intervalo \, quedará un espacio de silencio entre granos.
, f 56;
#X text 954 266 3º elegir el tipo de reproducción del archivo original
(aleatoria/normal). En el modo aleatorio se toman muestras de granos
de posiciones aleatorias del archivo original a intervalos de tiempo
regulares., f 57;
#X text 955 349 5º Setear la velocidad de reproducción del grano
\, ajustar el volúmen de salida y escuchar. También se puede escuchar
la señal original con el control de volúmen LIMPIO, f 57;
#X text 964 564 --> PHASOR.Continuo: Permite realizar síntesis sincrónica.
En este caso la frecuencia de iteración equivale a la duración del
grano y no hay un tiempo de silencio entre los granos. En el caso de
la reproducción aleatoria \, el control de tiempo de la iteración
permite ajustar cada cuánto tiempo se produce un cambio de posición
puntero lector del archivo original., f 55;
#X text 308 713 motor default \; vel_rep def;
