#N canvas -8 -8 1538 818 10;
#N canvas 0 0 1522 802 sg1 0;
#X obj 194 -47 cnv 15 225 340 empty empty empty 20 12 0 14 #e0e0e0
#404040 0;
#X obj 200 170 cnv 15 213 118 empty empty empty 20 12 0 14 #808080
#404040 0;
#X obj 201 -17 cnv 15 213 183 empty empty empty 20 12 0 14 #000000
#404040 0;
#X obj 207 -10 cnv 7 199 138 empty empty empty 20 12 0 14 #ebd7d6 #404040
0;
#X obj 852 -440 bng 15 250 50 0 empty sg1_cargar empty 17 7 0 10 #fcfcfc
#000000 #000000;
#X obj 852 -419 openpanel;
#X msg 852 -398 read -resize \$1 muestra;
#N canvas 0 50 450 250 (subpatch) 0;
#X array muestra 2.46857e+06 float 2 black black;
#X coords 0 1 2.46857e+06 -1 200 140 1;
#X restore 207 -10 graph;
#X obj 852 -377 soundfiler;
#X floatatom 867 -350 9 0 0 0 - - -, f 9;
#X obj 852 -320 expr 44100 / $f1;
#X obj 852 -299 phasor~;
#X obj 852 -278 *~;
#X obj 697 38 tabread4~ muestra;
#X obj 904 251 *~;
#X obj 630 210 pack 0 10;
#X obj 880 -100 samphold~;
#X obj 698 3 +~;
#X obj 560 -450 f;
#X obj 560 -510 bng 15 250 50 0 empty empty empty 17 7 0 10 #fcfcfc
#000000 #000000;
#X obj 800 270 env~;
#X obj 630 231 line~;
#X floatatom 720 -140 10 0 0 0 - - -, f 10;
#X obj 207 140 hsl 196 15 0 1 0 0 empty posicionlect empty -2 -8 0
10 #808080 #eab002 #000000 10459 1;
#N canvas 846 241 453 353 loc 0;
#X obj 94 100 snapshot~;
#X obj 129 71 metro 20;
#X obj 129 46 tgl 15 0 empty empty empty 17 7 0 10 #fcfcfc #000000
#000000 1 1;
#X obj 217 11 r lb;
#X msg 217 32 1;
#X obj 60 62 inlet~;
#X obj 94 122 s posicionlect;
#X obj 280 140 inlet;
#X connect 0 0 6 0;
#X connect 1 0 0 0;
#X connect 2 0 1 0;
#X connect 3 0 4 0;
#X connect 4 0 2 0;
#X connect 5 0 0 0;
#X restore 1050 40 pd loc;
#X obj 1299 90 bng 15 250 50 0 empty empty empty 17 7 0 10 #fcfcfc
#000000 #000000;
#X obj 1330 110 samplerate~;
#X obj 1330 131 /~ 256;
#X obj 1330 182 osc~;
#X msg 1420 150 0;
#X obj 1330 203 *~ -0.5;
#X obj 1330 224 +~ 0.5;
#X obj 1330 245 tabwrite~ hanning;
#X obj 697 119 *~;
#X obj 733 63 *~ 256;
#X obj 732 90 tabread4~ hanning;
#X obj 571 -419 nbx 5 14 -1e+37 1e+37 0 0 empty empty empty 0 -8 0
10 #fcfcfc #000000 #000000 0 256 0;
#X text 410 -340 SEÑAL DE CONTROL;
#X obj 550 -340 nbx 10 14 -1e+37 1e+37 0 0 empty empty empty 0 -8 0
10 #fcfcfc #000000 #000000 0 256 0;
#X text 562 -535 velocidad orig.;
#X text 350 -450 Velocidad alterada;
#X obj 1330 270 table hanning 256;
#X obj 1630 -360 loadbang;
#X obj 1630 -335 s lb;
#X obj 270 -130 snapshot~;
#X obj 210 -210 tgl 15 0 empty empty empty 17 7 0 10 #fcfcfc #000000
#000000 0 1;
#X obj 210 -187 metro 20;
#X floatatom 270 -105 25 0 0 0 - - -, f 25;
#X obj 720 -199 * 44.1;
#X floatatom 720 -249 5 0 0 0 - sg1_tam -, f 5;
#X obj 550 -380 expr 44100 / $f1;
#X obj 590 -154 line~;
#X msg 590 -205 1 \$1;
#X obj 590 -270 bng 15 250 50 0 empty empty empty 17 7 0 10 #fcfcfc
#000000 #000000;
#X obj 590 -240 f;
#X obj 720 -116 sig~;
#X obj 697 -47 *~;
#X obj 350 -290 tgl 15 0 empty empty empty 17 7 0 10 #fcfcfc #000000
#000000 1 1;
#X obj 470 -104 random 104617;
#X obj 470 -79 sig~;
#X obj 1360 -193 line~;
#X msg 1360 -244 1 \$1;
#X obj 1340 -330 bng 15 250 50 0 empty empty empty 17 7 0 10 #fcfcfc
#000000 #000000;
#X obj 1410 -244 del 0;
#X msg 1410 -219 0 1;
#X obj 1360 -279 f;
#X obj 1360 -101 tabread4~ muestra;
#X obj 1360 -20 *~;
#X obj 1396 -76 *~ 256;
#X obj 1395 -49 tabread4~ hanning;
#X obj 1360 -150 *~;
#X obj 1378 -341 expr $f1 * 1000 / 44100;
#X obj 1299 70 r lb;
#X obj 207 -40 bng 16 250 50 0 sg1_cargar empty CARGAR\ ARCH 21 7 0
10 #fcfcfc #000000 #000000;
#N canvas 0 0 450 300 graf1 0;
#X obj 82 157 s sg1-random;
#X obj 82 49 tgl 15 0 empty empty empty 17 7 0 10 #fcfcfc #000000 #000000
1 1;
#X obj 82 72 sel 1;
#X msg 82 102 label RANDOM;
#X msg 102 132 label LINEAL;
#X obj 80 20 inlet;
#X obj 240 80 s sg1_randomSW;
#X connect 1 0 2 0;
#X connect 1 0 6 0;
#X connect 2 0 3 0;
#X connect 2 1 4 0;
#X connect 3 0 0 0;
#X connect 4 0 0 0;
#X connect 5 0 1 0;
#X restore 100 220 pd graf1;
#N canvas 880 200 454 329 switch 0;
#X obj 41 96 inlet~;
#X obj 140 96 inlet~;
#X obj 40 260 outlet~;
#X obj 41 170 *~;
#X obj 140 170 *~;
#X obj 230 40 r sg1_randomSW;
#X obj 270 66 sel 0;
#X obj 61 140 line 0 20;
#X msg 270 91 1;
#X obj 160 140 line 0 20;
#X msg 300 110 0;
#X connect 0 0 3 0;
#X connect 1 0 4 0;
#X connect 3 0 2 0;
#X connect 4 0 2 0;
#X connect 5 0 6 0;
#X connect 5 0 7 0;
#X connect 6 0 8 0;
#X connect 6 1 10 0;
#X connect 7 0 3 1;
#X connect 8 0 9 0;
#X connect 9 0 4 1;
#X connect 10 0 9 0;
#X restore 790 -30 pd switch;
#X obj 280 -360 r lb;
#X msg 280 -335 0;
#X obj 205 175 cnv 15 203 109 empty empty empty 20 12 0 14 #f8d5a5
#404040 0;
#X obj 310 180 cnv 5 73 16 empty sg1-random RANDOM 7 6 1 14 #332e2d
#ffffff 0;
#X obj 217 260 hradio 15 0 0 2 empty empty empty 0 -8 0 10 #312e36
#ff8000 #000000 0;
#X obj 390 200 vsl 11 70 0 1 0 0 empty empty empty 0 -9 0 10 #606060
#fc8000 #000000 2200 1;
#X obj 210 180 bng 12 250 50 0 empty empty reproduccion: 13 5 0 10
#808080 #ff8000 #000000;
#X obj 211 209 tgl 15 0 empty empty sinc 17 6 0 10 #808080 #000000
#000000 0 1;
#X obj 640 -205 del;
#X obj 920 90 env~;
#X floatatom 920 115 5 0 0 0 - - -, f 5;
#X obj 1200 260 tabread hanning;
#X floatatom 1200 230 5 0 0 0 - - -, f 5;
#X floatatom 1200 285 15 0 0 0 - - -, f 15;
#X msg 640 -180 0 0;
#X obj 350 -260 metro 100;
#X obj 890 320 outlet~;
#X obj 960 320 outlet~;
#X text 1350 -380 Lectura de un ciclo;
#X obj 1010 -320 s arch_muestras;
#X obj 470 -10 /~;
#X obj 522 -43 r arch_muestras;
#N canvas 880 200 454 329 switch 0;
#X obj 41 96 inlet~;
#X obj 140 96 inlet~;
#X obj 40 260 outlet~;
#X obj 41 170 *~;
#X obj 140 170 *~;
#X obj 230 40 r sg1_randomSW;
#X obj 270 66 sel 0;
#X obj 61 140 line 0 20;
#X msg 270 91 1;
#X obj 160 140 line 0 20;
#X msg 300 110 0;
#X connect 0 0 3 0;
#X connect 1 0 4 0;
#X connect 3 0 2 0;
#X connect 4 0 2 0;
#X connect 5 0 6 0;
#X connect 5 0 7 0;
#X connect 6 0 8 0;
#X connect 6 1 10 0;
#X connect 7 0 3 1;
#X connect 8 0 9 0;
#X connect 9 0 4 1;
#X connect 10 0 9 0;
#X restore 1050 10 pd switch;
#X text 1120 10 pos indicador;
#X obj 400 -290 r sg1_metro;
#X obj 280 210 nbx 5 14 -1e+37 1e+37 0 0 sg1_metro empty iteración
0 -8 0 10 #fcfcfc #000000 #000000 500 256 0;
#X obj 280 240 nbx 5 14 -1e+37 1e+37 0 0 sg1_tam empty tam.grano(ms)
0 -8 0 10 #fcfcfc #000000 #000000 50 256 0;
#X obj 800 295 s sg1_vu;
#X connect 4 0 5 0;
#X connect 5 0 6 0;
#X connect 6 0 8 0;
#X connect 8 0 18 1;
#X connect 8 0 9 0;
#X connect 9 0 10 0;
#X connect 9 0 12 1;
#X connect 9 0 70 1;
#X connect 9 0 71 0;
#X connect 9 0 58 1;
#X connect 9 0 95 0;
#X connect 10 0 11 0;
#X connect 11 0 12 0;
#X connect 11 0 98 1;
#X connect 12 0 16 0;
#X connect 13 0 33 0;
#X connect 14 0 20 0;
#X connect 14 0 92 0;
#X connect 14 0 93 0;
#X connect 15 0 21 0;
#X connect 16 0 75 1;
#X connect 17 0 13 0;
#X connect 18 0 36 0;
#X connect 18 0 50 0;
#X connect 19 0 18 0;
#X connect 20 0 103 0;
#X connect 21 0 14 1;
#X connect 22 0 55 0;
#X connect 25 0 26 0;
#X connect 25 0 29 0;
#X connect 25 0 32 0;
#X connect 26 0 27 0;
#X connect 27 0 28 0;
#X connect 28 0 30 0;
#X connect 29 0 28 1;
#X connect 30 0 31 0;
#X connect 31 0 32 0;
#X connect 33 0 14 0;
#X connect 34 0 35 0;
#X connect 34 0 44 0;
#X connect 35 0 33 1;
#X connect 35 0 85 0;
#X connect 42 0 43 0;
#X connect 44 0 47 0;
#X connect 45 0 46 0;
#X connect 46 0 44 0;
#X connect 48 0 22 0;
#X connect 49 0 48 0;
#X connect 49 0 54 1;
#X connect 50 0 38 0;
#X connect 51 0 16 1;
#X connect 51 0 34 0;
#X connect 51 0 56 0;
#X connect 52 0 51 0;
#X connect 53 0 54 0;
#X connect 54 0 52 0;
#X connect 54 0 84 0;
#X connect 55 0 56 1;
#X connect 56 0 17 0;
#X connect 57 0 91 0;
#X connect 58 0 59 0;
#X connect 59 0 75 0;
#X connect 59 0 96 0;
#X connect 60 0 70 0;
#X connect 60 0 68 0;
#X connect 61 0 60 0;
#X connect 62 0 65 0;
#X connect 63 0 64 0;
#X connect 64 0 60 0;
#X connect 65 0 63 0;
#X connect 65 0 61 0;
#X connect 66 0 67 0;
#X connect 68 0 69 0;
#X connect 69 0 67 1;
#X connect 70 0 66 0;
#X connect 71 0 65 1;
#X connect 72 0 25 0;
#X connect 75 0 17 1;
#X connect 76 0 77 0;
#X connect 77 0 57 0;
#X connect 81 0 15 0;
#X connect 82 0 74 0;
#X connect 84 0 90 0;
#X connect 85 0 86 0;
#X connect 87 0 89 0;
#X connect 88 0 87 0;
#X connect 90 0 51 0;
#X connect 91 0 53 0;
#X connect 91 0 58 0;
#X connect 96 0 98 0;
#X connect 97 0 96 1;
#X connect 98 0 24 0;
#X connect 100 0 91 1;
#X coords 0 -1 1 1 228 344 1 193 -48;
#X restore 410 170 pd sg1;
#N canvas 608 116 765 472 escribir_archivo 0;
#X obj 371 77 cnv 5 167 87 empty empty empty 20 12 0 14 #e0e0e0 #404040
0;
#X obj 230 134 t b s;
#X msg 180 170 open;
#X obj 180 230 pack s s s;
#X obj 270 195 l2s;
#X msg 180 255 set \$1 \$2\$3;
#X msg 180 280 open deseo_grabar.wav;
#X msg 270 170 .wav;
#X obj 20 160 inlet~;
#X obj 70 160 inlet~;
#X obj 20 320 writesf~ 2;
#X obj 376 80 cnv 5 158 81 empty empty GRABADOR 16 11 0 10 #000000
#ffffff 0;
#X msg 420 225 stop;
#X symbolatom 390 112 20 0 0 0 - - -, f 20;
#X obj 210 -5 loadbang;
#X obj 210 50 l2s;
#X msg 210 25 nombre_de_archivo;
#X obj 370 205 bng 15 250 50 0 empty empty empty 17 7 0 10 #fcfcfc
#000000 #000000;
#X obj 420 205 bng 15 250 50 0 empty empty empty 17 7 0 10 #fcfcfc
#000000 #000000;
#X obj 430 137 tgl 13 0 empty empty grabar -40 5 0 10 #808080 #ffffff
#ff8000 0 1;
#X obj 540 210 sel 1;
#X msg 100 60 0;
#X obj 453 144 cnv 1 8 8 empty grab_grabando GRABANDO 13 -2 0 12 #000000
#000018 0;
#N canvas 1076 212 453 327 col 0;
#X obj 80 115 s grab_grabando;
#X msg 80 90 color -1 13;
#X obj 80 35 inlet;
#X obj 170 34 inlet;
#X obj 170 59 bng 15 250 50 0 empty empty empty 17 7 0 10 #fcfcfc #000000
#000000;
#X obj 80 60 bng 15 250 50 0 empty empty empty 17 7 0 10 #fcfcfc #000000
#000000;
#X msg 170 90 color -1 -25;
#X connect 1 0 0 0;
#X connect 2 0 5 0;
#X connect 3 0 4 0;
#X connect 4 0 6 0;
#X connect 5 0 1 0;
#X connect 6 0 0 0;
#X restore 540 250 pd col;
#X obj -20 210 env~;
#X obj -20 240 expr ($f1 + $f2) / 2;
#X obj -20 265 s grab_vu;
#X obj 471 86 hsl 48 14 0 100 0 0 empty grab_vu IN 36 5 0 10 #c0c0c0
#ff8000 #ffffff 1411 1;
#X obj 370 228 t b b;
#X obj 370 253 del 20;
#X msg 370 278 start;
#X connect 1 0 7 0;
#X connect 1 0 2 0;
#X connect 1 1 3 1;
#X connect 2 0 3 0;
#X connect 3 0 5 0;
#X connect 4 0 3 2;
#X connect 5 0 6 0;
#X connect 6 0 10 0;
#X connect 7 0 4 0;
#X connect 8 0 10 0;
#X connect 8 0 24 0;
#X connect 9 0 10 1;
#X connect 9 0 24 0;
#X connect 12 0 10 0;
#X connect 13 0 1 0;
#X connect 14 0 16 0;
#X connect 14 0 21 0;
#X connect 15 0 13 0;
#X connect 16 0 15 0;
#X connect 17 0 28 0;
#X connect 18 0 12 0;
#X connect 19 0 20 0;
#X connect 20 0 17 0;
#X connect 20 0 23 0;
#X connect 20 1 18 0;
#X connect 20 1 23 1;
#X connect 21 0 19 0;
#X connect 24 0 25 0;
#X connect 25 0 26 0;
#X connect 28 0 29 0;
#X connect 28 1 6 0;
#X connect 29 0 30 0;
#X connect 30 0 10 0;
#X coords 0 -1 1 1 168 90 1 371 76;
#X restore 950 420 pd escribir_archivo 1;
#X obj 507 631 dac~;
#X text 740 170 Para ingresar cualquier dato (número \, texto \, etc.)
es necesario pulsar la casilla deseada \, teclear y luego apretar la
tecla enter (de otra forma el dato no se almacena);
#X connect 0 0 1 0;
#X connect 0 0 2 0;
#X connect 0 1 1 1;
#X connect 0 1 2 1;
